<?xml version="1.0" encoding="UTF-8" standalone="no"?>
<!-- Created with Inkscape (http://www.inkscape.org/) -->

<svg
   width="900"
   height="400"
   viewBox="0 0 238.12499 105.83333"
   version="1.1"
   id="svg1"
   inkscape:version="1.4.3 (0d15f75042, 2025-12-25)"
   sodipodi:docname="Feedback_loop_description.svg"
   xmlns:inkscape="http://www.inkscape.org/namespaces/inkscape"
   xmlns:sodipodi="http://sodipodi.sourceforge.net/DTD/sodipodi-0.dtd"
   xmlns="http://www.w3.org/2000/svg"
   xmlns:svg="http://www.w3.org/2000/svg">
  <sodipodi:namedview
     id="namedview1"
     pagecolor="#ffffff"
     bordercolor="#666666"
     borderopacity="1.0"
     inkscape:showpageshadow="2"
     inkscape:pageopacity="0.0"
     inkscape:pagecheckerboard="0"
     inkscape:deskcolor="#d1d1d1"
     inkscape:document-units="mm"
     inkscape:zoom="0.72871773"
     inkscape:cx="397.27316"
     inkscape:cy="561.25984"
     inkscape:window-width="1920"
     inkscape:window-height="1011"
     inkscape:window-x="0"
     inkscape:window-y="0"
     inkscape:window-maximized="1"
     inkscape:current-layer="layer1" />
  <defs
     id="defs1" />
  <g
     inkscape:label="Ebene 1"
     inkscape:groupmode="layer"
     id="layer1">
    <g
       id="g1"
       transform="translate(-7.012464,4.1756802)">
      <g
         id="g85"
         transform="matrix(0.26458333,0,0,0.26458333,140.67917,-251.49799)">
        <path
           fill="none"
           stroke="#000000"
           stroke-width="6"
           stroke-linecap="round"
           stroke-linejoin="round"
           d="M -361.426,980.673 V 1178.67"
           id="path85" />
      </g>
      <g
         id="g86"
         transform="matrix(0.26458333,0,0,0.26458333,140.67917,-251.49799)">
        <path
           fill="none"
           stroke="#000000"
           stroke-width="6"
           stroke-linecap="round"
           stroke-linejoin="round"
           d="m -360.426,1178.67 162,-110"
           id="path86" />
      </g>
      <g
         id="g87"
         transform="matrix(0.26458333,0,0,0.26458333,140.67917,-251.49799)">
        <path
           fill="none"
           stroke="#000000"
           stroke-width="6"
           stroke-linecap="round"
           stroke-linejoin="round"
           d="m -362.426,978.673 161,87.997"
           id="path87" />
      </g>
      <g
         id="g88"
         transform="matrix(0.26458333,0,0,0.26458333,140.67917,-251.49799)">
        <path
           fill="none"
           stroke="#000000"
           stroke-width="4"
           stroke-linecap="round"
           stroke-linejoin="round"
           d="m -361.426,1029.67 h -52"
           id="path88" />
      </g>
      <g
         id="g89"
         transform="matrix(0.26458333,0,0,0.26458333,140.67917,-251.49799)">
        <path
           fill="none"
           stroke="#000000"
           stroke-width="4"
           stroke-linecap="round"
           stroke-linejoin="round"
           d="m -360.426,1122.67 h -50"
           id="path89" />
      </g>
      <g
         id="g93"
         transform="matrix(0.26458333,0,0,0.26458333,140.67917,-251.49799)">
        <path
           fill="none"
           stroke="#000000"
           stroke-width="4"
           stroke-linecap="round"
           stroke-linejoin="round"
           d="m -344.447,1039.98 0.591,-0.89 1.034,-0.01 0.283,-0.38 4.511,-1.64 3.821,-0.58 6.069,-0.37"
           id="path93" />
      </g>
      <g
         id="g94"
         transform="matrix(0.26458333,0,0,0.26458333,140.67917,-251.49799)">
        <path
           fill="none"
           stroke="#000000"
           stroke-width="4"
           stroke-linecap="round"
           stroke-linejoin="round"
           d="m -332.334,1025.95 -0.164,-1.12 0.066,0.54 -3.891,9.39 -0.939,4.53 -0.665,6.95"
           id="path94" />
      </g>
      <g
         id="g95"
         transform="matrix(0.26458333,0,0,0.26458333,140.67917,-251.49799)">
        <path
           fill="none"
           stroke="#000000"
           stroke-width="4"
           stroke-linecap="round"
           stroke-linejoin="round"
           d="m -345.472,1123.66 0.725,0.59 1.294,-0.05 1.008,-0.41 4.544,-0.13 18.924,-4.23"
           id="path95" />
      </g>
      <g
         id="g96"
         transform="matrix(0.26458333,0,0,0.26458333,140.67917,-251.49799)">
        <path
           fill="none"
           stroke="#000000"
           stroke-width="4"
           stroke-linecap="round"
           stroke-linejoin="round"
           d="m -412,1127 v 106.76"
           id="path96" />
      </g>
      <g
         id="g97"
         transform="matrix(0.26458333,0,0,0.26458333,140.67917,-251.49799)">
        <path
           fill="none"
           stroke="#000000"
           stroke-width="4"
           stroke-linecap="round"
           stroke-linejoin="round"
           d="m -411.788,1124.52 0.897,-0.22 0.045,-0.4 -0.305,0.16 0.003,-0.53 -0.414,0.51 0.37,0.28 -0.215,-0.28 -0.217,0.14 0.482,0.09 -0.301,-0.05 -0.184,0.39 -0.345,2.35 0.655,1.58"
           id="path97" />
      </g>
      <g
         id="g98"
         transform="matrix(0.26458333,0,0,0.26458333,140.67917,-251.49799)">
        <path
           fill="none"
           stroke="#000000"
           stroke-width="4"
           stroke-linecap="round"
           stroke-linejoin="round"
           d="M -201,1069 H 4.21579"
           id="path98" />
      </g>
      <g
         id="g99"
         transform="matrix(0.26458333,0,0,0.26458333,140.67917,-251.49799)">
        <path
           fill="none"
           stroke="#000000"
           stroke-width="4"
           stroke-linecap="round"
           stroke-linejoin="round"
           d="M -64,1232.56 V 1071"
           id="path99" />
      </g>
      <g
         id="g100"
         transform="matrix(0.26458333,0,0,0.26458333,140.67917,-251.49799)">
        <path
           fill="none"
           stroke="#000000"
           stroke-width="2"
           stroke-linecap="round"
           stroke-linejoin="round"
           d="m 41.6181,1060.66 -0.3407,-4.38 -0.866,-2.6 -2.2169,2.08 -1.5062,2.42 -1.7515,4.47 -0.7143,4.28 -0.1861,4.29 0.3814,3.04 1.2577,2.46 1.9869,1.89 2.5748,1.64 3.659,0.21 1.5597,-0.74 0.7589,-0.04 2.5072,-1.09 2.3982,-1.58 3.8744,-3.44 3.5471,-4.43 1.4912,-3.14 0.874,-3.55 0.1859,-3.4 -0.6788,-4.94 -0.2275,-0.1 -0.1856,0.52 -0.9171,10.68 -0.2675,5.12 0.2873,3.59 0.7082,2.88 0.8346,1.87 1.3441,1.46 2.8735,1.85"
           id="path100" />
      </g>
      <g
         id="g101"
         transform="matrix(0.26458333,0,0,0.26458333,140.67917,-251.49799)">
        <path
           fill="none"
           stroke="#000000"
           stroke-width="2"
           stroke-linecap="round"
           stroke-linejoin="round"
           d="m 78.8342,1074.05 -0.2027,-1.51 -0.9736,-0.32 -1.6433,0.29 -1.3861,0.92 -0.7113,0.02 -1.6179,1.92 -0.5756,1.17 0.2972,1.92 0.9032,1.01 1.263,0.46 3.5315,0.38 3.0445,-1.56 1.25,-1.23 1.6654,-0.92 1.8567,-2.38 0.5252,-1.78 -0.8965,-1.91 -3.2427,-2.22 -1.0584,0.38 -0.8767,1.06 -1.1196,2.84"
           id="path101" />
      </g>
      <g
         id="g102"
         transform="matrix(0.26458333,0,0,0.26458333,140.67917,-251.49799)">
        <path
           fill="none"
           stroke="#000000"
           stroke-width="2"
           stroke-linecap="round"
           stroke-linejoin="round"
           d="m 93.922,1073.1 -0.9985,-1.64 -0.2165,0.1 -0.21,-0.56 -0.3465,0.29 -0.1274,-0.37 -1.6518,4.13 -0.033,1.23 0.3937,1.3 0.7793,0.63 1.4454,0.37 1.9539,-0.71 0.8122,-0.75 2.4972,-1.1 1.697,-1.87 1.252,-2.4 0.074,-2.7 -0.445,1.99 -0.113,2.88 0.902,2.21 2.907,1.55 2.229,-0.19 2.956,-1.26"
           id="path102" />
      </g>
      <g
         id="g103"
         transform="matrix(0.26458333,0,0,0.26458333,140.67917,-251.49799)">
        <path
           fill="none"
           stroke="#000000"
           stroke-width="2"
           stroke-linecap="round"
           stroke-linejoin="round"
           d="m 123.299,1047.89 -0.689,1.47 -0.952,4.4 -1.769,11.55 -0.814,7.6 -0.644,2.77 -0.726,1.29 h -0.309 l -1.25,1.54 -0.156,-0.26 -0.844,-0.04 -0.832,-0.84 -1.4,-3.14 -0.131,-2.52 0.764,-1.78 0.64,-0.53 1.355,-0.27 1.024,0.41 4.733,-0.57 6.332,-0.2 2.478,-0.47"
           id="path103" />
      </g>
      <g
         id="g104"
         transform="matrix(0.26458333,0,0,0.26458333,140.67917,-251.49799)">
        <path
           fill="none"
           stroke="#000000"
           stroke-width="2"
           stroke-linecap="round"
           stroke-linejoin="round"
           d="m 166.959,1060.41 -0.847,-0.46 -0.636,0.14 -0.43,-0.4 0.108,-0.61 0.077,0.36 0.862,0.44 15.19,-0.15 3.157,0.51"
           id="path104" />
      </g>
      <g
         id="g105"
         transform="matrix(0.26458333,0,0,0.26458333,140.67917,-251.49799)">
        <path
           fill="none"
           stroke="#000000"
           stroke-width="2"
           stroke-linecap="round"
           stroke-linejoin="round"
           d="m 166.185,1069.62 -0.207,-0.43 3.113,0.51 1.425,-0.31 6.925,0.06 7.43,-0.88"
           id="path105" />
      </g>
      <g
         id="g111"
         transform="matrix(0.26458333,0,0,0.26458333,140.67917,-251.49799)">
        <path
           fill="none"
           stroke="#000000"
           stroke-width="2"
           stroke-linecap="round"
           stroke-linejoin="round"
           d="m -483.805,1010.41 -0.368,-0.84 -1.256,-0.74 -0.622,-0.86 -1.176,0.62 -1.124,1.1 -1.294,2.31 -0.566,1.74 -1.558,11.2 0.526,6.33 1.526,3.92 1.594,2.01 1.001,0.55 1.405,0.48 2.216,0.06 3.565,-1.36 4.172,-4.46 2.894,-4.79 2.411,-6.52 0.903,-4.51 -0.229,-5.76 -0.579,-1.33 -0.694,0.39 -0.246,0.79 -0.017,14.42 -0.376,2.53 0.904,4.85 1.865,3.78"
           id="path111" />
      </g>
      <g
         id="g112"
         transform="matrix(0.26458333,0,0,0.26458333,140.67917,-251.49799)">
        <path
           fill="none"
           stroke="#000000"
           stroke-width="2"
           stroke-linecap="round"
           stroke-linejoin="round"
           d="m -461.767,1035.77 -0.155,-0.17 -0.659,0.35 0.621,1.28 0.024,4.22 0.385,0.9 -0.102,3.21"
           id="path112" />
      </g>
      <g
         id="g113"
         transform="matrix(0.26458333,0,0,0.26458333,140.67917,-251.49799)">
        <path
           fill="none"
           stroke="#000000"
           stroke-width="2"
           stroke-linecap="round"
           stroke-linejoin="round"
           d="m -460.372,1021.18 -0.879,-0.55 -0.517,0.17 2.232,5.34"
           id="path113" />
      </g>
      <g
         id="g114"
         transform="matrix(0.26458333,0,0,0.26458333,140.67917,-251.49799)">
        <path
           fill="none"
           stroke="#000000"
           stroke-width="2"
           stroke-linecap="round"
           stroke-linejoin="round"
           d="m -452.914,1036.28 -0.128,-1.77 -0.165,0.86 0.028,2.32 0.461,0.72 -0.402,1.93 0.512,0.88 0.788,0.51 0.285,-0.09 0.006,-0.85 1.055,-1.64 2.653,-3.55 0.325,0.25 -0.503,0.3 -0.138,0.65 0.826,1.63 0.632,2.37 0.874,1.25 1.183,0.7 0.864,0.04 2.331,-0.94 2.818,-2.14"
           id="path114" />
      </g>
      <g
         id="g128"
         transform="matrix(0.26458333,0,0,0.26458333,140.67917,-251.49799)">
        <path
           fill="none"
           stroke="#000000"
           stroke-width="4"
           stroke-linecap="round"
           stroke-linejoin="round"
           d="m -319.123,1188.54 h 168.838 v 103.31 h -168.838 v -103.31"
           id="path128" />
      </g>
      <g
         id="g129"
         transform="matrix(0.26458333,0,0,0.26458333,140.67917,-251.49799)">
        <path
           fill="none"
           stroke="#000000"
           stroke-width="4"
           stroke-linecap="round"
           stroke-linejoin="round"
           d="m -411.875,1234.2 h 92"
           id="path129" />
      </g>
      <g
         id="g130"
         transform="matrix(0.26458333,0,0,0.26458333,140.67917,-251.49799)">
        <path
           fill="none"
           stroke="#000000"
           stroke-width="4"
           stroke-linecap="round"
           stroke-linejoin="round"
           d="m -147.875,1233.2 h 81.0002"
           id="path130" />
      </g>
      <g
         id="g131"
         transform="matrix(0.26458333,0,0,0.26458333,140.67917,-251.49799)">
        <path
           fill="#000000"
           fill-rule="evenodd"
           d="m 271,1028.5 -4.5,0.5 -1.5,-1.5 0.5,-0.5 4.5,-0.5 5,-1.12 2.75,-0.13 v 1.5 l -6.75,1.75"
           id="path131" />
      </g>
      <g
         id="g132"
         transform="matrix(0.26458333,0,0,0.26458333,140.67917,-251.49799)">
        <path
           fill="#000000"
           fill-rule="evenodd"
           d="m 294.75,1034.75 -1.75,-0.12 h -4 l -1.5,0.37 -2,2 h -2 l -0.5,-0.5 1.5,-1.5 h 1 l 2,-2 4.5,-1.25 v -12.5 l -2.5,0.75 -2.5,1.5 -1.5,0.5 -1,1 -1.5,-1.5 0.5,-0.5 1.5,-0.5 6.75,-3.75 2,-8.75 1.25,-3.5 2.5,-2.5 2.375,0.25 -0.625,6.75 -0.75,2 -3.625,7 -0.875,12.75 h 2 l 5,-1.25 6.75,-0.37 v 1.87 l -12.5,1.25 -0.5,2.5 M 296,1014 v -0.5 l 0.5,-1.5 0.875,-2 1.625,-5.5 -0.5,-0.5 -1.5,1.5 -0.375,1.5 -1.125,3 -0.5,3.5 1,0.5"
           id="path132" />
      </g>
      <g
         id="g133"
         transform="matrix(0.26458333,0,0,0.26458333,140.67917,-251.49799)">
        <path
           fill="#000000"
           fill-rule="evenodd"
           d="m 253,1046.38 -11.5,-0.38 -4.5,-4.5 -0.5,-1.5 -1,-2 -0.5,-1.5 -2.5,-2.5 -1.5,-0.25 h -5 l -3.5,1.25 -5.5,5.5 v 1 l -2,2 v 2.5 l -1,-0.5 v -3 l 2,-2 v -1 l 5.5,-5.5 3.5,-1.25 h 7 l 1.5,0.25 3.5,3.5 0.5,1.5 2.5,4.5 1.5,1.5 12.5,0.25 3,-0.75 6.5,-2.5 0.5,0.5 -1.5,1.5 -1.5,0.5 -4,1.88 -4,1"
           id="path133" />
      </g>
      <g
         id="g259"
         transform="matrix(0.26458333,0,0,0.26458333,140.67917,-251.49799)">
        <path
           fill="#000000"
           fill-rule="evenodd"
           d="m -270,1248.38 -8.5,0.62 -1.5,-1.5 -1,-4 v -0.5 l 1,0.5 1.25,3.25 1.75,0.5 5,0.25 13,-4 5,-2 1.75,-0.25 v 1.5 l -13.75,4.75 -4,0.88"
           id="path259" />
      </g>
      <g
         id="g260"
         transform="matrix(0.26458333,0,0,0.26458333,140.67917,-251.49799)">
        <path
           fill="#000000"
           fill-rule="evenodd"
           d="m -188.25,1258.75 -2.25,0.25 -2,-2 h -1 l -2.5,-2.5 v -1 l -0.5,-0.5 -1,1 -1.5,0.25 h -7 l -1.5,-0.25 -1.5,-1.5 -0.25,-1.5 v -9 l 0.875,-3 0.875,-2 0.25,-1.87 -6.75,0.62 -1.875,0.5 -0.125,5.25 -0.5,0.5 -1.5,-1.5 v -4 l 2.5,-2.5 7.5,-0.62 4,-0.88 2.75,-0.25 v 1.5 l -1.5,0.5 -2.75,6.75 -0.75,3 -0.75,7.5 1.5,1.5 6.5,-0.75 1.875,-0.5 0.75,-4.75 1.375,-5.5 2,-2 0.25,-1.25 1.25,-0.25 2,-2 1.5,1.5 -0.625,4.5 -1,3 -0.875,2 -0.5,1.5 -2,2 0.625,3.5 0.625,1.75 3.5,1.5 v 1.5 M -189,1240 v -1.5 l -1,-0.5 v 1 l 1,1 m -1,2 v -1.5 l -1,-0.5 v 1 l 1,1 m -2,5 v -0.5 l 1,-4 -1,-0.5 v 0.5 l -1,4 1,0.5"
           id="path260" />
      </g>
      <g
         id="g261"
         transform="matrix(0.26458333,0,0,0.26458333,140.67917,-251.49799)">
        <path
           fill="#000000"
           fill-rule="evenodd"
           d="m -179.5,1270 -2.25,0.75 1.25,-2.75 3,-4 2,-3 4,-9 0.75,-4 v -14 l -0.875,-3 -0.875,-2 -3.5,-5.5 0.5,-0.5 3.5,3.5 0.5,1.5 0.875,2 1,3 1,5 -0.125,12 -1.875,8 -0.875,2 -3,5 -0.5,1.5 -2.5,2.5 -2,1"
           id="path261" />
      </g>
      <g
         id="g262"
         transform="matrix(0.26458333,0,0,0.26458333,140.67917,-251.49799)">
        <path
           fill="#000000"
           fill-rule="evenodd"
           d="m -223.25,1265.75 -4.25,-0.75 -2,-2 -1.5,-0.5 -4.5,-2.5 -3.5,-3.5 -1.25,-3.5 v -8 l 1.875,-7 1.875,-4 2.5,-4.5 5.5,-5.5 h 4.5 l -0.5,1 -4,1 -1.5,1.5 -2.375,4.5 -4.125,11 -0.875,4 0.125,7 0.25,1.5 4.5,4.5 1.5,0.5 5,2.88 2.75,0.87 v 1.5"
           id="path262" />
      </g>
      <g
         id="g263"
         transform="matrix(0.26458333,0,0,0.26458333,140.67917,-251.49799)">
        <path
           fill="#000000"
           fill-rule="evenodd"
           d="m -283.875,1263 -1.125,3.5 -4.5,4.5 -1,-1 -1,1 -6.5,-0.62 -4.5,-1.38 -1.5,-1.5 -0.875,-7.25 h 1.75 l 0.125,5.25 2.5,2.5 1.5,0.25 5,0.13 2.75,-0.63 3.25,-5.25 2,-2 0.875,-39.5 1.375,-4.75 1.25,-0.25 1,-1 0.5,0.5 -1.125,6.5 -1.75,41"
           id="path263" />
      </g>
      <g
         id="g264"
         transform="matrix(0.26458333,0,0,0.26458333,140.67917,-251.49799)">
        <path
           fill="#000000"
           fill-rule="evenodd"
           d="m -263,1219.5 -8.5,-0.5 -4.5,-4.5 -0.5,-1.5 -1,-2 -0.5,-1.5 -2.5,-2.5 -1.5,-0.25 h -6 l -3.5,1.25 -4.5,4.5 v 1 l -2,2 -0.25,2.25 h -1.5 l 0.25,-1.75 2.5,-4.5 4.5,-4.5 h 1 l 2,-2 2.5,-0.37 5,0.12 1.5,0.25 4.5,4.5 0.5,1.5 2.75,4.75 1.25,0.25 2,2 7.5,-0.62 4,-0.88 6.5,-2.5 1,-1 0.5,0.5 v 1 l -1.5,1.5 -1.5,0.5 -2,0.88 -8,2.12"
           id="path264" />
      </g>
      <g
         id="g265"
         transform="matrix(0.26458333,0,0,0.26458333,140.67917,-251.49799)">
        <path
           fill="#000000"
           fill-rule="evenodd"
           d="m 337.5,1072 h -2 l -1.5,-1.5 v -2 l 0.5,-0.5 1,1 2,-2 1.5,1.5 -1,1 1,1 -1.5,1.5"
           id="path265" />
      </g>
      <g
         id="g266"
         transform="matrix(0.26458333,0,0,0.26458333,140.67917,-251.49799)">
        <path
           fill="#000000"
           fill-rule="evenodd"
           d="m 325.5,1086 -3.5,-0.62 -1.5,-0.38 -2.5,-2.5 -0.25,-1.25 -1.75,0.13 -4,1.12 h -3 l -4.75,-1.75 -0.625,-2.75 v -7 l 0.875,-3 1.125,-3 0.375,-1.5 1,-1 -0.5,-0.5 -8,1 -1.5,1.5 v 5.5 l -1,-0.5 v -6 l 1.5,-1.5 9,-1 1,-1 1,1 2,-2 h 1 l 1.5,1.5 -0.5,0.5 h -1 l -1.5,1.5 -0.375,1.5 -3.125,10 -0.5,4.5 2.5,2.5 7,-1 1.5,-1.5 0.75,-6.5 0.75,-2 2.75,-4.75 1.75,-0.62 2.75,-0.38 -0.375,3.75 -2.875,7 -1.5,2.5 -0.625,2.5 0.625,2.5 1.5,1.5 3,1 h 0.5 l -0.5,1 m -1.5,-18 v -1.5 l -1,-0.5 v 1 l 1,1 m -2,5 v -0.5 l 1,-4 -1,-0.5 v 0.5 l -1,4 1,0.5"
           id="path266" />
      </g>
      <g
         id="g267"
         transform="matrix(0.26458333,0,0,0.26458333,140.67917,-251.49799)">
        <path
           fill="#000000"
           fill-rule="evenodd"
           d="m 241,1076.5 -6.5,-0.5 -1.5,-1.5 -1,-3 0.5,-0.5 1.5,1.5 v 1 l 1.5,1.5 7.5,-0.62 4,-0.88 13.5,-4.5 1,-1 0.5,0.5 -0.25,1.25 -20.75,6.75"
           id="path267" />
      </g>
      <g
         id="g268"
         transform="matrix(0.26458333,0,0,0.26458333,140.67917,-251.49799)">
        <path
           fill="#000000"
           fill-rule="evenodd"
           d="m 289.5,1094 -11,-6 -4.5,-4.5 -0.375,-1.5 -1.125,-3 -0.125,-3 1.25,-6 3,-8 2.375,-4.5 5.5,-5.5 1.5,-0.37 3.75,-0.38 v 1.63 l -4.25,0.12 -2.5,2.5 -2.375,4.5 -3,8 -0.875,4 -0.75,10.5 5.5,5.5 1.5,0.5 6,3 1.5,0.5 0.5,0.5 -1.5,1.5"
           id="path268" />
      </g>
      <g
         id="g269"
         transform="matrix(0.26458333,0,0,0.26458333,140.67917,-251.49799)">
        <path
           fill="#000000"
           fill-rule="evenodd"
           d="m 228,1094.5 -3.5,3.5 -13,-1 -2.5,-2.5 -0.625,-2.5 v -2 l 0.875,-2.75 1.25,-0.25 0.5,0.5 -1,1 0.75,4.5 0.5,1.75 1.75,0.5 7.5,0.75 5.5,-5.5 1.25,-5.5 0.375,-32 1.375,-8.5 1.5,-1.5 1.375,0.25 -1.875,48.25 -2,2 v 1"
           id="path269" />
      </g>
      <g
         id="g270"
         transform="matrix(0.26458333,0,0,0.26458333,140.67917,-251.49799)">
        <path
           fill="#000000"
           fill-rule="evenodd"
           d="m 370.5,1095 -2.25,0.75 2.25,-3.75 3.5,-4.5 4.375,-8.5 1,-3 1,-5 v -10 l -1.125,-5 -0.75,-2 -2.5,-4.5 -1,-1 0.5,-0.5 h 1 l 1.5,1.5 0.5,1.5 2,4 0.75,2 1.125,6 v 10 l -1.875,8 -1.125,3 -2.875,5 -0.5,1.5 -3.5,3.5 -2,1"
           id="path270" />
      </g>
      <g
         id="g271"
         transform="matrix(0.26458333,0,0,0.26458333,140.67917,-251.49799)">
        <path
           fill="#000000"
           fill-rule="evenodd"
           d="m 359.5,1087 h -3 l -2.5,-2.5 -1.25,-4.25 -1.25,-0.25 -4.5,4.5 -2,4 -1.5,1.5 -1.5,-1.5 1,-4 -0.5,-0.5 -4,4 -6,1 -1.5,-1.5 1,-7 1.5,-1.5 h 1 l 0.5,0.5 -1,1 -0.5,2.5 -0.25,3.75 2.75,-0.37 4.5,-2.38 1.5,-1.5 1.25,-4.25 h 1.625 l 0.125,5.25 0.5,0.5 4.5,-4.5 v -1 l 2.5,-2.5 h 1 l 1.5,1.5 1.25,7.25 2.25,0.25 1.5,1.5 -0.5,0.5 m -14.5,-2 v -1 h -1 v 1 h 1"
           id="path271" />
      </g>
    </g>
  </g>
</svg>
